<?xml version="1.0" standalone="no"?>
<!DOCTYPE svg PUBLIC "-//W3C//DTD SVG 20010904//EN"
 "http://www.w3.org/TR/2001/REC-SVG-20010904/DTD/svg10.dtd">
<svg version="1.0" xmlns="http://www.w3.org/2000/svg"
 width="475.000000pt" height="526.000000pt" viewBox="0 0 475.000000 526.000000"
 preserveAspectRatio="xMidYMid meet">

<g transform="translate(0.000000,526.000000) scale(0.100000,-0.100000)"
fill="#000000" stroke="none">
<path d="M4560 4924 c-207 -22 -510 -44 -770 -54 -140 -6 -313 -15 -385 -20
-71 -5 -200 -14 -285 -20 -85 -5 -185 -12 -221 -16 l-65 -6 28 -59 c15 -32 28
-66 28 -74 0 -8 4 -15 9 -15 5 0 12 -12 17 -27 9 -34 9 -33 19 -58 37 -93 37
-88 15 -82 -53 14 15 -53 85 -84 28 -12 64 -33 80 -47 36 -29 75 -90 75 -116
0 -61 68 -277 94 -301 6 -5 11 -14 12 -20 3 -23 17 -55 24 -55 5 0 11 6 14 13
3 6 3 -12 1 -41 -5 -66 17 -141 49 -171 16 -15 42 -25 70 -28 41 -5 48 -10 71
-49 14 -24 30 -44 35 -44 6 0 10 -9 10 -20 0 -12 11 -31 24 -43 13 -12 35 -44
49 -72 29 -58 61 -90 99 -99 18 -4 37 -21 53 -45 47 -75 96 -118 155 -135 108
-31 248 -19 341 27 111 57 219 130 279 191 36 36 69 66 75 66 5 -1 21 -10 34
-21 19 -16 22 -22 12 -29 -20 -12 -5 -57 20 -65 14 -5 25 -2 30 6 5 8 9 377 9
822 l0 807 -37 -1 c-21 -1 -90 -8 -153 -15z"/>
<path d="M774 3383 c-47 -84 -55 -94 -64 -88 -6 4 -10 -4 -10 -17 0 -27 -14
-51 -26 -46 -5 1 -10 -7 -12 -19 -2 -13 -14 -31 -27 -41 -28 -22 -86 -112 -80
-123 3 -4 1 -10 -4 -14 -6 -3 -8 -12 -4 -20 3 -8 0 -15 -6 -15 -6 0 -8 -6 -5
-14 3 -7 -2 -16 -10 -19 -9 -4 -16 -18 -16 -32 0 -14 -7 -28 -16 -32 -8 -3
-13 -11 -10 -18 2 -7 -4 -15 -15 -18 -17 -5 -19 -1 -16 22 3 16 10 38 17 50 6
13 9 30 6 38 -5 13 -4 14 8 4 26 -22 28 8 2 31 -16 15 -26 36 -27 58 -2 19 -7
41 -12 48 -13 17 -47 15 -47 -3 0 -8 -4 -15 -10 -15 -5 0 -10 7 -10 15 0 25
52 149 67 162 8 6 12 17 8 23 -4 7 4 5 18 -5 24 -16 27 -15 46 4 11 11 18 27
15 36 -4 8 -1 15 5 15 6 0 11 5 11 11 0 7 -12 9 -37 4 -35 -6 -77 -41 -111
-93 -12 -19 -21 -22 -46 -17 -42 8 -76 26 -70 37 10 16 -17 8 -55 -17 -28 -17
-41 -34 -46 -57 -4 -18 -14 -43 -23 -56 -13 -21 -13 -22 4 -16 17 6 16 4 -3
-17 -12 -13 -22 -27 -22 -32 0 -4 -8 -21 -17 -39 -12 -24 -15 -49 -12 -100 3
-37 2 -68 -2 -68 -16 0 -28 -81 -18 -118 16 -57 115 -262 128 -262 6 0 15 10
20 23 16 40 130 202 130 186 0 -22 29 -33 36 -14 4 8 27 29 52 46 41 28 44 28
30 7 -8 -13 -59 -92 -113 -176 l-97 -153 47 -44 c49 -47 60 -52 70 -35 3 6 12
10 18 10 7 0 4 -5 -6 -11 -45 -27 28 -40 86 -15 56 23 70 48 65 112 -6 66 1
71 63 49 24 -8 76 -18 114 -22 61 -5 79 -11 135 -49 36 -24 86 -63 111 -86 58
-53 158 -104 224 -113 28 -4 57 -14 66 -21 9 -8 23 -12 31 -9 10 4 26 -6 44
-28 39 -45 118 -67 246 -67 73 0 98 -4 108 -15 7 -9 21 -13 31 -10 11 4 25 -1
35 -14 20 -23 34 -19 34 10 0 10 9 24 21 31 28 18 81 94 103 148 28 69 37 209
20 308 -16 96 -62 205 -93 221 -25 14 -49 49 -54 79 -4 30 -44 82 -63 82 -9 0
-12 -5 -8 -12 4 -7 8 -21 9 -32 1 -12 5 -31 9 -43 8 -26 7 -27 -64 -13 -29 6
-55 8 -57 6 -2 -2 4 -22 13 -44 9 -23 14 -47 11 -54 -3 -8 -9 -2 -15 14 -7 18
-17 26 -26 22 -9 -3 -25 11 -46 41 -20 29 -37 44 -46 41 -9 -3 -14 2 -14 14 0
25 -6 25 -34 3 -24 -19 -26 -23 -26 -53 0 -11 -3 -19 -7 -19 -23 4 -33 -3 -33
-22 0 -11 -4 -17 -10 -14 -5 3 -10 1 -10 -5 0 -6 -4 -8 -10 -5 -5 3 -10 1 -10
-6 0 -8 -4 -8 -15 1 -8 7 -15 21 -15 31 0 13 -7 19 -21 19 -12 0 -23 8 -26 19
-3 14 -17 21 -51 26 -63 9 -122 26 -122 36 0 10 -61 44 -72 41 -5 -1 -8 5 -8
13 0 14 -43 32 -67 27 -7 -2 -13 4 -13 12 0 11 -8 13 -33 9 -31 -5 -34 -3 -54
44 l-21 48 -7 -33 c-10 -41 -38 -40 -43 1 -3 20 -8 27 -18 23 -8 -3 -20 3 -26
14 -16 26 -28 25 -28 0 0 -11 -6 -20 -13 -20 -23 0 -27 12 -9 27 16 12 16 14
-2 28 -10 8 -24 16 -30 18 -7 3 -4 10 6 18 10 8 38 57 63 109 25 52 52 108 61
124 25 49 7 40 -22 -11z m-567 -335 c-3 -8 -6 -5 -6 6 -1 11 2 17 5 13 3 -3 4
-12 1 -19z m143 -153 c0 -8 -4 -15 -10 -15 -5 0 -7 7 -4 15 4 8 8 15 10 15 2
0 4 -7 4 -15z m54 -20 c3 -8 3 -15 0 -15 -3 0 -12 7 -20 15 -13 13 -13 15 -1
15 8 0 17 -7 21 -15z m1081 -5 c3 -5 1 -10 -4 -10 -6 0 -11 5 -11 10 0 6 2 10
4 10 3 0 8 -4 11 -10z m-1075 -42 c0 -5 -15 -8 -32 -8 -28 1 -30 2 -15 11 9 6
15 15 11 20 -3 6 3 5 15 -3 12 -7 21 -16 21 -20z m1097 0 c-3 -8 -6 -5 -6 6
-1 11 2 17 5 13 3 -3 4 -12 1 -19z m-27 -20 c0 -5 -4 -8 -10 -8 -5 0 -10 10
-10 23 0 18 2 19 10 7 5 -8 10 -18 10 -22z m-1320 12 c0 -5 -5 -10 -11 -10 -5
0 -7 5 -4 10 3 6 8 10 11 10 2 0 4 -4 4 -10z m152 -22 c-7 -7 -12 -8 -12 -2 0
14 12 26 19 19 2 -3 -1 -11 -7 -17z m1469 -41 c-17 -17 -24 -1 -9 22 11 18 14
19 16 5 2 -9 -1 -21 -7 -27z m-1601 -12 c0 -5 -5 -3 -10 5 -5 8 -10 20 -10 25
0 6 5 3 10 -5 5 -8 10 -19 10 -25z m1200 -1 c0 -3 -6 -12 -14 -19 -17 -17 -30
-7 -15 12 12 13 29 18 29 7z m360 -4 c0 -5 -2 -10 -4 -10 -3 0 -8 5 -11 10 -3
6 -1 10 4 10 6 0 11 -4 11 -10z"/>
<path d="M3510 3394 c0 -13 18 -39 24 -34 2 3 -2 14 -10 24 -8 11 -14 16 -14
10z"/>
<path d="M990 3363 c0 -12 -3 -13 -13 -4 -8 6 -17 8 -20 5 -10 -11 -61 -13
-67 -4 -6 9 -120 -156 -120 -174 0 -7 12 -19 28 -25 60 -29 254 -91 279 -91
34 0 133 45 133 60 0 23 -33 60 -75 85 -32 18 -43 30 -38 42 5 13 2 15 -14 11
-32 -9 -43 4 -49 58 -5 39 -10 50 -25 51 -11 1 -19 -5 -19 -14z"/>
<path d="M3581 3293 c26 -49 155 -190 165 -180 15 14 -9 58 -48 88 -24 18 -65
56 -92 83 l-48 51 23 -42z"/>
<path d="M4653 3308 c7 -20 -3 -28 -47 -39 -24 -5 -26 -7 -8 -8 12 -1 22 -7
22 -15 0 -19 -27 -39 -41 -30 -8 4 -9 3 -5 -4 4 -6 -2 -24 -14 -40 -11 -15
-23 -46 -25 -67 -3 -22 -3 -34 1 -27 3 6 15 12 27 12 16 0 18 -3 9 -12 -18
-18 -15 -46 5 -44 10 0 18 -3 19 -9 2 -24 17 -44 27 -38 6 3 7 1 3 -5 -4 -7
-4 -17 0 -23 4 -7 17 15 30 49 20 55 22 73 18 179 -3 66 -10 122 -16 128 -8 7
-9 5 -5 -7z"/>
<path d="M3540 3218 c0 -16 123 -134 149 -143 12 -3 21 -10 21 -15 0 -10 -32
-1 -40 11 -3 5 -22 10 -42 12 -20 2 -44 9 -52 16 -12 10 -16 10 -16 2 0 -7 -4
-9 -10 -6 -5 3 -10 -1 -10 -9 0 -19 -16 -21 -23 -3 -2 6 -7 9 -11 5 -11 -10
12 -48 29 -48 8 0 15 -4 15 -10 0 -5 7 -10 15 -10 8 0 23 -9 34 -21 11 -12 24
-18 30 -15 14 9 51 -25 51 -47 0 -10 4 -16 9 -12 5 3 17 -2 26 -11 8 -9 24
-14 35 -11 10 3 20 1 22 -5 2 -5 11 -6 19 -3 15 5 14 14 -3 88 -13 57 -26 89
-43 105 -13 12 -26 22 -29 22 -7 0 -116 70 -133 84 -40 35 -43 37 -43 24z"/>
<path d="M3230 3096 c0 -9 98 -66 113 -66 10 0 17 -4 17 -8 0 -9 59 -32 83
-32 9 0 17 4 17 9 0 5 -10 9 -23 9 -13 0 -59 20 -103 46 -69 41 -104 55 -104
42z"/>
<path d="M1402 3045 c-11 -12 -10 -15 2 -15 18 0 76 -32 76 -42 0 -5 9 -8 19
-8 10 0 22 -7 25 -16 3 -9 15 -14 28 -12 13 2 31 -5 41 -14 20 -21 22 -29 5
-25 -7 1 -12 -6 -12 -15 2 -21 -1 -22 -28 -7 -17 9 -18 13 -7 21 11 8 10 9 -3
4 -10 -3 -20 -1 -23 4 -3 4 0 10 7 12 7 3 -9 10 -35 17 -26 8 -44 17 -42 22 5
8 -33 24 -41 17 -2 -3 14 -18 35 -34 22 -16 37 -32 34 -36 -2 -5 3 -8 11 -8 9
0 16 -4 16 -10 0 -5 5 -10 11 -10 14 0 79 -67 79 -81 0 -5 5 -7 10 -4 7 4 8
11 2 18 -15 18 -11 68 5 74 10 4 12 14 7 37 -7 35 -20 47 -42 38 -11 -4 -14
-1 -9 11 4 11 1 17 -7 17 -8 0 -16 7 -20 15 -3 9 -19 15 -41 15 -19 0 -35 5
-35 11 0 6 7 8 16 5 8 -3 12 -2 9 4 -9 15 -78 11 -93 -5z"/>
<path d="M1365 3010 c3 -5 13 -10 21 -10 8 0 12 5 9 10 -3 6 -13 10 -21 10 -8
0 -12 -4 -9 -10z"/>
<path d="M3325 2955 c16 -13 42 -27 57 -31 16 -3 26 -9 24 -12 -2 -4 12 -8 32
-9 19 -1 38 -7 42 -13 4 -6 14 -8 23 -4 22 8 14 20 -18 28 -14 4 -49 17 -78
30 -28 13 -65 26 -82 30 l-30 6 30 -25z"/>
<path d="M3530 2890 c0 -5 10 -10 23 -10 18 0 19 2 7 10 -19 13 -30 13 -30 0z"/>
<path d="M3596 2873 c-8 -8 -24 -11 -90 -17 -46 -5 -77 -16 -43 -16 10 0 17
-4 17 -9 0 -5 -9 -7 -21 -4 -20 6 -102 -9 -164 -29 -35 -11 -118 -27 -195 -38
-40 -6 -24 -7 60 -5 120 4 169 8 233 20 32 7 37 5 37 -10 0 -10 -3 -16 -6 -12
-4 3 -13 0 -21 -8 -8 -8 -32 -15 -53 -15 -24 0 -40 -5 -44 -15 -3 -8 -17 -15
-31 -15 -15 0 -24 4 -20 10 6 10 -7 9 -104 -6 -51 -7 -32 -16 27 -11 34 2 62
2 62 -2 0 -14 -169 -46 -248 -46 -65 0 -79 -2 -67 -12 27 -19 125 -25 200 -13
39 7 82 14 96 16 39 5 209 70 276 106 67 35 80 45 58 45 -8 0 -15 -4 -15 -9 0
-4 -6 -8 -14 -8 -8 0 -16 -6 -19 -12 -2 -7 -8 -10 -12 -5 -17 15 36 50 75 49
23 -1 37 3 38 11 1 6 4 24 8 40 6 25 -4 36 -20 20z m-92 -72 c3 -5 -10 -18
-29 -30 -34 -20 -35 -20 -35 -1 0 11 7 20 15 20 8 0 15 5 15 10 0 12 27 13 34
1z"/>
<path d="M2304 2694 c3 -9 6 -21 7 -27 0 -7 4 -3 8 8 9 22 5 35 -11 35 -5 0
-7 -7 -4 -16z"/>
<path d="M2806 2504 c-27 -7 -53 -19 -57 -26 -10 -16 -156 -15 -190 1 l-24 12
25 -20 c39 -32 115 -44 175 -29 27 7 53 17 57 23 4 5 8 6 8 2 0 -8 63 25 85
45 13 11 -20 8 -79 -8z"/>
<path d="M2150 2210 c-70 -17 -120 -47 -155 -93 -19 -25 -35 -50 -35 -56 0
-22 -123 -70 -180 -71 -19 0 -82 10 -139 21 -85 18 -110 19 -141 10 -45 -13
-78 -39 -82 -65 -4 -24 12 -32 102 -47 82 -13 110 -30 110 -65 0 -22 13 -26
37 -11 6 4 14 3 18 -3 3 -5 15 -10 26 -10 11 0 17 -4 14 -10 -3 -5 0 -10 7
-10 9 0 9 -3 -2 -10 -13 -8 -12 -10 4 -10 10 0 29 -11 42 -25 l24 -25 40 40
c22 22 42 40 44 40 7 0 -6 -40 -15 -46 -5 -3 -9 -14 -9 -25 0 -11 -7 -20 -17
-20 -10 -1 -2 -4 17 -8 54 -9 97 -1 124 24 l24 22 11 -23 c9 -21 18 -24 61
-24 32 0 49 4 45 10 -3 6 3 10 15 10 12 0 18 -4 15 -11 -5 -7 14 -9 56 -7 63
3 63 3 70 37 4 19 10 85 13 148 5 89 4 113 -6 113 -7 0 -18 10 -23 23 -6 12
-14 22 -20 22 -17 0 -17 -41 0 -55 19 -16 19 -26 1 -33 -11 -4 -13 -1 -9 10 4
11 2 14 -8 11 -8 -3 -13 -11 -11 -17 1 -6 -1 -11 -6 -11 -6 0 -6 182 1 235 2
23 -14 27 -63 15z m130 -270 c0 -5 -2 -10 -4 -10 -3 0 -8 5 -11 10 -3 6 -1 10
4 10 6 0 11 -4 11 -10z m-240 -170 c0 -5 -4 -10 -10 -10 -5 0 -10 5 -10 10 0
6 5 10 10 10 6 0 10 -4 10 -10z m130 -10 c0 -5 -2 -10 -4 -10 -3 0 -8 5 -11
10 -3 6 -1 10 4 10 6 0 11 -4 11 -10z"/>
<path d="M2242 2125 c4 -36 33 -46 41 -15 3 14 1 20 -6 17 -7 -2 -18 3 -25 12
-11 14 -12 12 -10 -14z"/>
<path d="M4687 1909 c4 -13 9 -17 15 -11 11 11 3 32 -12 32 -4 0 -6 -9 -3 -21z"/>
<path d="M4648 1872 c-10 -2 -18 -8 -18 -13 0 -13 27 -11 35 2 9 13 4 16 -17
11z"/>
<path d="M527 1744 c-4 -4 -3 -12 0 -18 4 -6 8 -28 8 -49 1 -31 -4 -42 -22
-54 -27 -18 -42 -11 -23 12 9 11 10 15 0 15 -6 0 -10 6 -7 13 2 6 10 11 16 10
13 -3 15 13 3 21 -14 9 -37 -28 -39 -63 -1 -18 -7 -38 -12 -45 -5 -6 -12 -27
-16 -47 l-7 -37 48 -4 c33 -2 52 1 62 12 27 27 105 39 152 23 54 -18 67 -13
80 36 6 22 15 41 22 43 11 4 -34 86 -55 100 -5 3 -32 -1 -60 -9 -56 -16 -102
-10 -93 12 8 21 -41 45 -57 29z m148 -134 c3 -6 -1 -7 -9 -4 -18 7 -21 14 -7
14 6 0 13 -4 16 -10z m-101 -21 c-3 -5 -10 -7 -15 -3 -5 3 -7 10 -3 15 3 5 10
7 15 3 5 -3 7 -10 3 -15z"/>
<path d="M431 1704 c-26 -33 -26 -42 -3 -40 21 1 41 25 42 49 0 25 -15 21 -39
-9z"/>
<path d="M4430 1539 c0 -5 5 -7 10 -4 6 3 10 8 10 11 0 2 -4 4 -10 4 -5 0 -10
-5 -10 -11z"/>
<path d="M4080 1510 c0 -5 5 -10 11 -10 5 0 7 5 4 10 -3 6 -8 10 -11 10 -2 0
-4 -4 -4 -10z"/>
<path d="M755 1503 c-11 -2 -27 -7 -35 -10 -8 -4 -24 -7 -35 -7 -12 -1 -20 -8
-20 -19 0 -28 -34 -43 -49 -22 -12 16 -13 16 -19 1 -7 -19 -67 -22 -84 -5 -8
8 -17 8 -31 0 -11 -6 -32 -11 -46 -11 -19 0 -26 -5 -26 -20 0 -11 5 -20 11
-20 7 0 10 -13 7 -34 -5 -48 20 -58 155 -63 133 -6 157 -1 157 32 0 15 6 25
14 25 23 0 56 50 56 85 0 40 -27 73 -55 68z"/>
<path d="M4165 1490 c3 -5 8 -10 11 -10 2 0 4 5 4 10 0 6 -5 10 -11 10 -5 0
-7 -4 -4 -10z"/>
<path d="M1373 1478 c-13 -6 -23 -17 -23 -25 0 -7 -5 -13 -10 -13 -6 0 -23
-13 -39 -29 -15 -15 -34 -30 -42 -33 -14 -5 -39 32 -39 57 0 25 -50 47 -89 40
l-36 -8 29 -8 c16 -4 33 -6 38 -3 4 3 9 -2 9 -10 1 -9 2 -22 3 -28 3 -17 -33
-57 -66 -74 -36 -19 -41 -18 -28 5 7 13 7 22 0 26 -5 3 -10 -1 -10 -10 0 -20
-41 -17 -48 4 -3 10 0 12 12 8 13 -5 15 -2 10 21 -5 26 -5 26 10 8 16 -20 18
-18 29 32 9 42 -34 22 -94 -43 -23 -25 -45 -42 -49 -40 -5 3 -11 1 -15 -4 -3
-6 -12 -8 -19 -5 -9 3 -34 -15 -63 -45 -114 -120 -133 -141 -133 -151 0 -5
-11 -17 -25 -26 -14 -9 -22 -21 -18 -27 3 -5 1 -7 -4 -4 -6 4 -22 -2 -36 -13
-14 -11 -32 -20 -41 -20 -8 0 -41 -27 -72 -59 -55 -58 -57 -59 -80 -44 -17 11
-36 13 -67 9 -34 -5 -47 -3 -57 9 -11 13 -16 14 -34 1 -32 -20 -107 -31 -116
-16 -10 16 -47 -6 -53 -32 -3 -10 -14 -18 -26 -18 -12 0 -21 -5 -21 -12 0 -6
-3 -9 -6 -6 -3 3 -16 -4 -30 -17 -21 -20 -24 -31 -24 -99 0 -58 4 -78 15 -82
8 -3 17 -14 20 -25 4 -10 13 -19 22 -19 30 0 82 -31 76 -46 -8 -21 10 -17 30
6 21 25 47 26 47 1 0 -11 3 -26 6 -35 4 -10 1 -16 -9 -16 -8 0 -17 -5 -19 -12
-3 -7 -12 -5 -26 8 -17 14 -39 19 -82 20 l-59 0 1 -40 c1 -23 5 -46 10 -52 4
-6 -1 -20 -12 -32 -27 -28 -25 -50 6 -95 25 -37 25 -40 11 -83 -12 -36 -12
-42 -1 -33 11 9 14 7 14 -7 0 -18 16 -28 84 -54 36 -13 206 -16 215 -3 3 6 29
18 58 27 28 9 56 22 60 29 20 26 52 129 59 189 4 35 7 68 8 73 1 6 9 21 19 35
25 36 23 54 -5 39 -17 -9 -24 -9 -33 5 -13 18 -35 22 -35 6 0 -6 9 -19 20 -30
39 -39 -19 -75 -72 -45 -25 15 -37 54 -24 82 9 19 17 23 37 19 14 -3 31 0 38
7 8 8 11 8 11 -1 0 -7 5 -12 10 -12 6 0 10 7 10 15 0 8 9 15 20 15 12 0 20 7
20 16 0 36 340 334 382 334 10 0 27 -9 39 -21 19 -19 20 -25 9 -65 -26 -93 40
-315 106 -359 20 -13 58 -20 134 -25 58 -4 110 -5 117 -3 6 3 29 -5 50 -15 25
-13 70 -23 128 -27 78 -6 99 -4 154 14 35 12 64 21 65 19 6 -12 36 -79 36 -82
0 -2 -35 -5 -77 -6 -121 -2 -137 -4 -145 -17 -5 -7 -51 -12 -135 -12 -70 -1
-131 -5 -134 -9 -4 -4 -10 -17 -13 -29 -6 -18 -1 -23 41 -37 26 -8 66 -18 88
-21 63 -10 73 -14 78 -35 6 -22 59 -31 95 -16 23 10 44 0 27 -12 -6 -4 -11
-15 -13 -24 -2 -16 3 -17 45 -11 26 3 56 10 65 14 10 6 18 5 20 -3 6 -16 74
-1 96 21 10 11 39 22 68 26 40 5 59 14 84 40 18 18 29 38 26 44 -4 7 1 11 13
11 10 0 21 4 23 10 2 5 57 16 123 25 128 16 226 43 233 65 3 8 0 10 -8 5 -22
-14 -147 -34 -253 -41 l-102 -7 20 24 c38 46 120 134 130 141 6 4 68 12 138
18 74 6 150 19 184 31 56 19 66 20 253 8 107 -6 205 -16 218 -20 34 -13 27
-43 -19 -75 -23 -15 -36 -30 -30 -32 6 -2 46 8 88 22 128 41 154 42 263 2 358
-128 342 -124 489 -126 23 0 24 -1 7 -13 -19 -14 -17 -15 104 -57 14 -5 77
-21 140 -35 63 -15 241 -57 395 -95 154 -38 297 -72 318 -75 l37 -7 0 120 0
120 -27 7 c-15 3 -52 17 -81 31 -29 13 -55 24 -57 24 -3 0 -57 25 -120 55 -64
30 -118 55 -121 55 -2 0 -4 -6 -4 -14 0 -22 -41 -67 -58 -64 -16 3 -43 90 -38
124 2 13 -6 22 -29 30 -18 6 -72 35 -120 64 l-88 52 -606 2 c-384 1 -615 6
-629 12 -23 10 -23 11 40 76 81 84 141 113 200 98 76 -21 232 -51 275 -53 42
-2 61 12 47 35 -3 5 -1 22 6 38 10 24 19 30 59 35 25 4 57 8 71 10 14 2 99 13
190 25 91 11 219 32 285 46 66 13 160 31 208 39 49 8 98 17 109 21 11 3 30 7
41 9 21 2 89 13 131 21 25 5 34 14 13 14 -9 0 -17 4 -17 9 0 6 12 6 29 1 17
-4 47 -4 68 1 35 8 68 7 181 -7 38 -5 42 -3 42 17 0 23 9 23 -110 3 -35 -6
-35 -6 -12 11 12 9 26 14 31 11 12 -8 73 18 64 27 -3 4 1 7 10 7 24 0 25 105
1 114 -22 9 -24 8 -24 -9 0 -8 -9 -15 -19 -15 -11 0 -23 -5 -26 -11 -4 -6 -13
-8 -20 -5 -7 2 -18 -1 -24 -7 -9 -9 -14 -9 -20 2 -6 9 -10 6 -15 -13 -5 -19
-12 -25 -29 -23 -12 1 -25 7 -29 12 -5 6 -8 5 -8 -2 0 -9 -12 -11 -37 -8 -46
5 -99 7 -134 6 -30 -1 -47 -36 -23 -45 8 -3 14 -10 14 -16 0 -12 -79 -8 -101
5 -6 4 -27 9 -45 10 -28 2 -34 -2 -34 -18 0 -11 -7 -28 -16 -38 -15 -17 -18
-17 -41 -2 -18 12 -27 13 -36 4 -9 -9 -9 -14 2 -20 11 -7 11 -10 0 -17 -20
-12 -35 -15 -117 -18 -39 -2 -78 -9 -85 -15 -10 -8 -17 -7 -27 2 -10 10 -12 9
-7 -5 10 -28 -19 -43 -56 -31 -66 23 -112 25 -137 6 -16 -11 -42 -18 -72 -18
-27 0 -48 -3 -48 -7 0 -11 -87 -10 -94 0 -4 7 -30 7 -96 1 -8 -1 -24 -8 -35
-15 -22 -16 -57 -18 -71 -5 -12 11 -76 2 -68 -10 3 -5 -5 -9 -17 -9 -12 0 -31
-8 -41 -17 -16 -15 -21 -15 -28 -3 -5 9 -5 19 1 26 8 9 5 11 -11 7 -13 -3 -19
-11 -16 -19 4 -11 2 -11 -15 -1 -16 10 -21 9 -29 -2 -7 -12 -13 -13 -35 -3
-36 16 -55 15 -55 -4 0 -10 6 -14 15 -10 21 8 19 -10 -4 -26 -10 -7 -21 -22
-24 -33 -4 -18 -5 -18 -6 3 -2 34 -21 26 -21 -8 0 -18 -6 -33 -15 -36 -8 -4
-15 -13 -15 -21 0 -9 -6 -13 -15 -9 -9 3 -20 -3 -27 -14 -7 -11 -23 -20 -36
-20 -17 0 -23 -4 -18 -15 3 -8 1 -15 -4 -15 -6 0 -10 5 -10 12 0 7 -15 -2 -32
-19 -50 -46 -118 -77 -118 -53 0 5 -9 6 -19 3 -12 -3 -17 -11 -14 -19 3 -8 0
-14 -6 -14 -6 0 -11 4 -11 10 0 5 -24 -1 -54 -14 -30 -13 -57 -22 -60 -18 -4
3 -13 -4 -22 -16 -8 -12 -20 -22 -26 -22 -6 0 -16 -7 -22 -15 -7 -9 -19 -12
-34 -9 -17 5 -20 10 -12 19 8 10 3 15 -19 23 -24 8 -29 15 -25 34 5 21 4 22
-9 5 -15 -18 -37 -23 -37 -8 0 5 6 14 14 20 8 6 11 22 8 37 -3 16 -7 21 -12
14 -5 -8 -9 -7 -14 5 -5 13 -17 16 -58 14 l-53 -3 2 40 c1 21 0 32 -3 23 -9
-31 -43 -10 -49 30 -4 20 -7 43 -9 51 -1 8 -8 14 -15 12 -10 -2 -12 5 -8 26 5
25 2 31 -20 41 -20 9 -28 9 -33 0 -11 -17 -29 -2 -23 19 3 12 -3 22 -19 29
l-23 12 22 0 22 1 -22 23 c-14 15 -28 21 -37 16 -16 -7 -60 6 -60 18 0 4 -15
26 -34 48 -19 22 -34 42 -34 45 -1 3 -5 18 -11 33 -10 25 -9 29 9 34 11 3 20
13 20 22 0 9 7 27 16 39 22 31 12 48 -30 56 -20 4 -36 11 -36 16 0 6 -22 10
-50 10 -27 0 -60 5 -74 11 -20 9 -29 9 -40 0 -8 -7 -23 -10 -34 -7 -19 6 -62
-22 -62 -41 0 -13 -35 -44 -42 -37 -8 7 3 45 11 40 4 -3 8 22 8 55 2 55 1 59
-20 58 -12 0 -32 -5 -44 -11z m27 -153 c0 -22 -2 -24 -14 -13 -10 9 -11 17 -4
26 15 17 18 15 18 -13z m-20 -50 c0 -24 -5 -35 -15 -35 -8 0 -15 -7 -15 -15 0
-8 -4 -15 -10 -15 -5 0 -10 -7 -10 -15 0 -16 -23 -19 -52 -7 -15 6 -14 10 7
35 13 15 32 27 42 27 14 0 15 2 5 9 -11 7 -9 13 9 30 32 29 39 27 39 -14z
m2846 -110 c-6 -17 -46 -21 -46 -5 0 6 9 10 20 10 11 0 19 3 19 8 -3 16 3 26
8 14 3 -7 2 -19 -1 -27z m-2926 -3 c0 -4 -9 -8 -20 -8 -11 0 -20 4 -20 8 0 4
9 8 20 8 11 0 20 -4 20 -8z m3227 2 c-3 -3 -12 -4 -19 -1 -8 3 -5 6 6 6 11 1
17 -2 13 -5z m-2660 -100 c-3 -3 -12 -4 -19 -1 -8 3 -5 6 6 6 11 1 17 -2 13
-5z m-447 -24 c0 -5 -7 -10 -16 -10 -8 0 -12 5 -9 10 3 6 10 10 16 10 5 0 9
-4 9 -10z m-50 -16 c0 -6 -7 -17 -16 -25 -13 -10 -17 -10 -25 2 -15 24 -10 37
16 35 14 0 25 -6 25 -12z m-1223 -100 c-9 -9 -28 6 -21 18 4 6 10 6 17 -1 6
-6 8 -13 4 -17z m1083 -24 c0 -5 -4 -10 -10 -10 -5 0 -10 5 -10 10 0 6 5 10
10 10 6 0 10 -4 10 -10z m-1155 -30 c-3 -5 -12 -10 -18 -10 -7 0 -6 4 3 10 19
12 23 12 15 0z m125 -14 c0 -24 -18 -28 -30 -6 -9 17 -8 20 10 20 11 0 20 -6
20 -14z m1213 -19 c-20 -33 -77 -107 -82 -107 -3 0 -13 5 -21 10 -12 9 -5 19
40 60 54 48 79 63 63 37z m-1323 -58 c0 -14 -5 -19 -17 -17 -10 2 -23 -3 -30
-12 -6 -8 -15 -12 -19 -8 -9 9 35 55 54 57 6 1 12 -8 12 -20z m253 -17 c-20
-21 -28 -20 -20 3 4 8 13 15 22 15 13 0 12 -3 -2 -18z m-198 -3 c4 -6 5 -12 3
-14 -7 -7 -48 7 -48 16 0 13 37 11 45 -2z m-65 -239 c0 -5 -2 -10 -4 -10 -3 0
-8 5 -11 10 -3 6 -1 10 4 10 6 0 11 -4 11 -10z"/>
<path d="M1355 1270 c3 -5 8 -10 11 -10 2 0 4 5 4 10 0 6 -5 10 -11 10 -5 0
-7 -4 -4 -10z"/>
<path d="M4458 1473 c7 -3 16 -2 19 1 4 3 -2 6 -13 5 -11 0 -14 -3 -6 -6z"/>
<path d="M4140 1460 c0 -13 20 -13 40 0 12 8 9 10 -12 10 -16 0 -28 -4 -28
-10z"/>
<path d="M4676 1455 c-3 -8 -1 -15 4 -15 13 0 22 18 11 24 -5 3 -11 -1 -15 -9z"/>
<path d="M4610 1440 c0 -5 7 -10 16 -10 8 0 12 5 9 10 -3 6 -10 10 -16 10 -5
0 -9 -4 -9 -10z"/>
<path d="M3986 1424 c-3 -8 1 -17 10 -21 22 -8 29 4 11 21 -13 14 -16 14 -21
0z"/>
<path d="M4703 1425 c-21 -24 -15 -40 7 -20 20 18 26 35 13 35 -5 -1 -14 -7
-20 -15z"/>
<path d="M4466 1397 c3 -10 9 -15 12 -12 3 3 0 11 -7 18 -10 9 -11 8 -5 -6z"/>
<path d="M4036 1391 c-4 -7 -5 -15 -2 -18 9 -9 19 4 14 18 -4 11 -6 11 -12 0z"/>
<path d="M4500 1371 c0 -5 5 -13 10 -16 6 -3 10 -2 10 4 0 5 -4 13 -10 16 -5
3 -10 2 -10 -4z"/>
<path d="M3520 1355 c0 -8 4 -15 10 -15 5 0 7 7 4 15 -4 8 -8 15 -10 15 -2 0
-4 -7 -4 -15z"/>
<path d="M3998 1363 c-10 -2 -18 -11 -18 -19 0 -12 4 -12 20 -4 11 6 20 15 20
20 0 6 -1 9 -2 9 -2 -1 -11 -3 -20 -6z"/>
<path d="M4541 1331 c-10 -6 -9 -10 3 -14 8 -3 18 -2 21 3 8 13 -9 20 -24 11z"/>
<path d="M3460 1270 c0 -5 5 -10 10 -10 6 0 10 5 10 10 0 6 -4 10 -10 10 -5 0
-10 -4 -10 -10z"/>
<path d="M490 1199 c-74 -10 -215 -22 -313 -25 l-177 -7 0 -84 0 -83 26 6 c18
5 25 3 21 -3 -10 -16 54 -24 93 -12 19 6 69 17 110 24 41 8 118 23 170 34 52
12 109 21 126 21 25 0 44 13 95 65 35 36 66 70 67 75 5 14 -63 11 -218 -11z"/>
<path d="M3930 1130 c0 -5 7 -10 15 -10 8 0 15 5 15 10 0 6 -7 10 -15 10 -8 0
-15 -4 -15 -10z"/>
<path d="M3565 1098 c-9 -22 4 -43 17 -30 7 7 7 16 0 29 -10 17 -11 17 -17 1z"/>
<path d="M3760 1080 c0 -5 9 -10 20 -10 11 0 20 5 20 10 0 6 -9 10 -20 10 -11
0 -20 -4 -20 -10z"/>
<path d="M2970 1004 c0 -8 5 -12 10 -9 6 3 10 10 10 16 0 5 -4 9 -10 9 -5 0
-10 -7 -10 -16z"/>
<path d="M2115 830 c3 -5 10 -10 16 -10 5 0 9 5 9 10 0 6 -7 10 -16 10 -8 0
-12 -4 -9 -10z"/>
<path d="M2252 745 c0 -16 2 -22 5 -12 2 9 2 23 0 30 -3 6 -5 -1 -5 -18z"/>
<path d="M2900 571 c-16 -31 -12 -36 11 -15 12 10 24 18 27 16 4 -2 8 1 10 7
6 19 -37 12 -48 -8z"/>
<path d="M2470 471 c0 -4 -19 -13 -42 -18 -34 -8 -37 -11 -16 -12 30 -1 78 18
78 31 0 4 -4 8 -10 8 -5 0 -10 -4 -10 -9z"/>
<path d="M3405 294 c-11 -7 -53 -17 -93 -23 -76 -10 -162 -53 -182 -92 -17
-30 -12 -84 9 -103 11 -10 25 -31 31 -47 l12 -29 301 0 300 0 -40 37 c-22 21
-58 64 -79 97 -22 32 -47 70 -56 85 -10 14 -35 41 -55 59 -32 27 -45 32 -83
31 -25 -1 -55 -8 -65 -15z m100 -4 c3 -5 1 -10 -4 -10 -6 0 -11 5 -11 10 0 6
2 10 4 10 3 0 8 -4 11 -10z m-32 -42 c-19 -19 -24 -20 -39 -7 -16 13 -15 15
12 20 48 11 49 10 27 -13z m-119 -14 c21 -8 2 -34 -24 -34 -24 0 -32 11 -19
27 13 15 20 16 43 7z m152 -25 c3 -6 1 -16 -5 -22 -8 -8 -6 -15 5 -28 11 -12
12 -19 4 -24 -8 -5 -8 -10 0 -20 7 -8 8 -19 4 -26 -5 -8 -9 -7 -16 5 -5 9 -15
16 -22 16 -20 0 -28 28 -14 53 7 12 11 30 9 40 -3 19 24 24 35 6z m114 -123
c0 -3 -4 -8 -10 -11 -5 -3 -10 -1 -10 4 0 6 5 11 10 11 6 0 10 -2 10 -4z m30
-56 c0 -5 -3 -10 -7 -11 -5 0 -16 -2 -25 -4 -20 -4 -24 11 -5 18 21 9 37 7 37
-3z"/>
<path d="M1439 140 c-13 -10 -19 -19 -13 -20 6 0 17 7 24 15 7 9 19 14 25 11
7 -2 18 0 26 5 10 6 7 9 -12 9 -15 0 -37 -9 -50 -20z"/>
</g>
</svg>
