<svg xmlns="http://www.w3.org/2000/svg" xmlns:xlink="http://www.w3.org/1999/xlink" width="500" zoomAndPan="magnify" viewBox="0 0 375 374.999991" height="500" preserveAspectRatio="xMidYMid meet" version="1.0"><defs><clipPath id="2dafdfa555">

<path d="M 28.324219 6 L 346.324219 6 L 346.324219 369 L 28.324219 369 Z M 28.324219 6 " clip-rule="nonzero"/></clipPath><clipPath id="cdd3a78dc5">

<path d="M 39.3125 16.632812 L 335.5625 16.632812 L 335.5625 358.632812 L 39.3125 358.632812 Z M 39.3125 16.632812 " clip-rule="nonzero"/></clipPath><clipPath id="0241a5c22a">

<path d="M 38.863281 15 L 335.863281 15 L 335.863281 357.652344 L 38.863281 357.652344 Z M 38.863281 15 " clip-rule="nonzero"/></clipPath><clipPath id="8e1ec0f7a8">

<path d="M 39.675781 15.699219 L 336.675781 15.699219 L 336.675781 359.199219 L 39.675781 359.199219 Z M 39.675781 15.699219 " clip-rule="nonzero"/></clipPath><clipPath id="344f3e47fe">

<path d="M 27.898438 2.742188 L 347.398438 2.742188 L 347.398438 372.492188 L 27.898438 372.492188 Z M 27.898438 2.742188 " clip-rule="nonzero"/></clipPath><clipPath id="a852b89b09">

<path d="M 225 120.003906 L 299.722656 120.003906 L 299.722656 185 L 225 185 Z M 225 120.003906 " clip-rule="nonzero"/></clipPath><clipPath id="8cf9611fb5">

<path d="M 75.472656 120.003906 L 252 120.003906 L 252 314.253906 L 75.472656 314.253906 Z M 75.472656 120.003906 " clip-rule="nonzero"/></clipPath><clipPath id="426d159870">

<path d="M 224 120.871094 L 299.714844 120.871094 L 299.714844 186 L 224 186 Z M 224 120.871094 " clip-rule="nonzero"/></clipPath><clipPath id="6092866f52">

<path d="M 74 120.871094 L 252 120.871094 L 252 316.621094 L 74 316.621094 Z M 74 120.871094 " clip-rule="nonzero"/></clipPath><clipPath id="ca8f7e9d2d">

<path d="M 224.722656 120.917969 L 299.722656 120.917969 L 299.722656 186.167969 L 224.722656 186.167969 Z M 224.722656 120.917969 " clip-rule="nonzero"/></clipPath><clipPath id="ebd867a3d8">

<path d="M 131.894531 153.902344 L 244.394531 153.902344 L 244.394531 251.402344 L 131.894531 251.402344 Z M 131.894531 153.902344 " clip-rule="nonzero"/></clipPath></defs><rect x="-37.5" width="450" fill="#ffffff" y="-37.499999" height="449.999989" fill-opacity="0"/><rect x="-37.5" width="450" fill="#ffffff" y="-37.499999" height="449.999989" fill-opacity="0"/><rect x="-37.5" width="450" fill="#ffffff" y="-37.499999" height="449.999989" fill-opacity="0"/>

<path fill="#ffffff" d="M 37.410156 100.449219 L 37.410156 273.140625 L 187.324219 360.625 L 338.375 273.140625 L 338.375 100.449219 L 187.324219 14.105469 Z M 37.410156 100.449219 " fill-opacity="0" fill-rule="nonzero"/><g clip-path="url(#2dafdfa555)">

<path fill="#ffffff" d="M 187.324219 368.578125 C 186.1875 368.578125 183.917969 368.578125 182.78125 367.441406 L 32.867188 281.09375 C 29.460938 278.824219 28.324219 276.550781 28.324219 273.140625 L 28.324219 100.449219 C 28.324219 97.042969 29.460938 94.769531 32.867188 93.632812 L 183.917969 7.289062 C 186.1875 6.152344 189.59375 6.152344 191.867188 7.289062 L 342.917969 93.632812 C 345.1875 94.769531 346.324219 97.042969 346.324219 100.449219 L 346.324219 274.277344 C 346.324219 277.6875 345.1875 279.957031 341.78125 281.09375 L 190.730469 367.441406 C 190.730469 368.578125 188.460938 368.578125 187.324219 368.578125 Z M 45.359375 268.597656 L 187.324219 350.398438 L 329.289062 268.597656 L 329.289062 104.996094 L 187.324219 23.195312 L 45.359375 104.996094 Z M 45.359375 268.597656 " fill-opacity="0" fill-rule="nonzero"/></g><g clip-path="url(#cdd3a78dc5)">

<path fill="#000000" d="M 187.449219 28.921875 L 324.71875 108.265625 L 324.71875 266.964844 L 187.449219 346.316406 L 50.179688 266.964844 L 50.179688 108.273438 L 187.449219 28.921875 M 187.449219 16.609375 L 39.53125 102.117188 L 39.53125 273.125 L 187.449219 358.625 L 335.367188 273.125 L 335.367188 102.117188 Z M 187.449219 16.609375 " fill-opacity="1" fill-rule="nonzero"/></g><g clip-path="url(#0241a5c22a)">

<path fill="#edfbf0" d="M 38.855469 100.644531 L 38.855469 271.90625 L 187.359375 357.539062 L 335.863281 271.910156 L 335.863281 100.644531 L 187.359375 15.011719 Z M 326.808594 266.6875 L 187.359375 347.097656 L 47.910156 266.6875 L 47.910156 105.867188 L 187.359375 25.457031 L 326.808594 105.867188 Z M 326.808594 266.6875 " fill-opacity="0" fill-rule="nonzero"/></g><g clip-path="url(#8e1ec0f7a8)">

<path fill="#22c3a6" d="M 39.664062 101.628906 L 39.664062 273.269531 L 188.167969 359.089844 L 336.675781 273.269531 L 336.675781 101.628906 L 188.171875 15.808594 L 39.667969 101.628906 Z M 327.617188 268.035156 L 188.167969 348.625 L 48.71875 268.035156 L 48.71875 106.863281 L 188.171875 26.273438 L 327.617188 106.863281 Z M 327.617188 268.035156 " fill-opacity="1" fill-rule="nonzero"/></g><g clip-path="url(#344f3e47fe)">

<path fill="#000000" d="M 27.886719 95.234375 L 27.886719 279.996094 L 187.640625 372.378906 L 347.398438 279.996094 L 347.398438 95.234375 L 187.644531 2.855469 L 27.890625 95.234375 Z M 337.65625 274.363281 L 187.640625 361.113281 L 37.628906 274.363281 L 37.628906 100.867188 L 187.644531 14.121094 L 337.65625 100.867188 Z M 337.65625 274.363281 " fill-opacity="1" fill-rule="nonzero"/></g><g clip-path="url(#a852b89b09)">

<path fill="#000000" d="M 262.417969 184.605469 L 225.148438 119.996094 L 299.683594 119.996094 Z M 262.417969 184.605469 " fill-opacity="1" fill-rule="nonzero"/></g>

<path fill="#333300" d="M 187.621094 218.925781 L 157.878906 167.355469 L 217.367188 167.355469 Z M 187.621094 218.925781 " fill-opacity="0" fill-rule="nonzero"/><g clip-path="url(#8cf9611fb5)">

<path fill="#333300" d="M 237.359375 179.257812 L 187.621094 265.488281 L 117.769531 144.386719 L 217.246094 144.386719 L 203.175781 119.996094 L 75.5625 119.996094 L 187.621094 314.265625 L 251.429688 203.648438 Z M 237.359375 179.257812 " fill-opacity="1" fill-rule="nonzero"/></g><g clip-path="url(#426d159870)">

<path fill="#edfbf0" d="M 262.164062 185.96875 L 224.644531 120.859375 L 299.679688 120.859375 Z M 262.164062 185.96875 " fill-opacity="1" fill-rule="nonzero"/></g>

<path fill="#22c3a6" d="M 186.867188 220.550781 L 156.925781 168.582031 L 216.8125 168.582031 Z M 186.867188 220.550781 " fill-opacity="0" fill-rule="nonzero"/><g clip-path="url(#6092866f52)">

<path fill="#22c3a6" d="M 236.9375 180.578125 L 186.867188 267.472656 L 116.542969 145.4375 L 216.691406 145.4375 L 202.527344 120.859375 L 74.054688 120.859375 L 186.867188 316.628906 L 251.105469 205.160156 Z M 236.9375 180.578125 " fill-opacity="1" fill-rule="nonzero"/></g><g clip-path="url(#ca8f7e9d2d)">

<path fill="#231f20" d="M 224.839844 120.925781 L 299.617188 120.925781 L 299.453125 121.210938 L 262.226562 186.167969 Z M 298.960938 121.304688 L 225.492188 121.304688 L 262.226562 185.40625 Z M 298.960938 121.304688 " fill-opacity="1" fill-rule="nonzero"/></g><g clip-path="url(#ebd867a3d8)">

<path fill="#ffffff" d="M 244.394531 153.917969 L 188.144531 251.386719 L 131.894531 153.917969 Z M 244.394531 153.917969 " fill-opacity="0" fill-rule="nonzero"/></g></svg>